<svg width="30" height="30" viewBox="0 0 30 30" fill="none" xmlns="http://www.w3.org/2000/svg">
<path d="M30 3.32227V26.6719C30 27.4746 29.2567 28.1191 28.346 28.1191H20.6987V17.959H24.596L25.1786 13.998H20.692V11.4668C20.692 10.3184 21.0536 9.53906 22.9353 9.53906H25.3326V5.99414C24.9174 5.94727 23.4978 5.83594 21.8371 5.83594C18.3817 5.83594 16.0112 7.68164 16.0112 11.0742V13.998H12.1004V17.959H16.0112V28.125H1.65402C0.743304 28.125 0 27.4746 0 26.6777V3.32227C0 2.52539 0.743304 1.875 1.65402 1.875H28.3393C29.2567 1.875 30 2.52539 30 3.32227Z" fill="black"/>
</svg>
